<svg xmlns="http://www.w3.org/2000/svg" viewBox="0 0 420 120" role="img" aria-labelledby="title desc">
  <title id="title">East Cheshire Ramblers</title>
  <desc id="desc">East Cheshire Ramblers wordmark with a simplified hill path mark.</desc>
  <rect width="420" height="120" rx="18" fill="#f5f7f4"/>
  <path d="M34 79c35-31 62-43 93-35 22 6 37 21 58 16 22-6 38-28 69-22 27 5 48 29 78 41" fill="none" stroke="#78be20" stroke-width="13" stroke-linecap="round"/>
  <path d="M62 94c47-35 79-43 112-30 21 8 36 24 63 20 24-4 46-20 81-8" fill="none" stroke="#006747" stroke-width="8" stroke-linecap="round"/>
  <path d="M76 98c32-24 62-32 92-25" fill="none" stroke="#f58220" stroke-width="8" stroke-linecap="round"/>
  <text x="34" y="34" fill="#163029" font-family="-apple-system, BlinkMacSystemFont, 'Segoe UI', Arial, sans-serif" font-size="22" font-weight="800">East Cheshire</text>
  <text x="242" y="34" fill="#163029" font-family="-apple-system, BlinkMacSystemFont, 'Segoe UI', Arial, sans-serif" font-size="22" font-weight="600">Ramblers</text>
</svg>
