<svg xmlns="http://www.w3.org/2000/svg" width="1024" height="1024" viewBox="0 0 1024 1024" role="img" aria-labelledby="title desc">
  <title id="title">RA Walks Notifier</title>
  <desc id="desc">Square Ramblers Tools logo using the Ramblers open-path symbol in orange and green, with a notification bell and the words RA Walks Notifier.</desc>

  <!-- Transparent background -->
  <g transform="translate(343.5 72) scale(7.5)">
    <path fill="#9BC8AB" fill-rule="nonzero" d="M38.222 0 9.265 6.395l.042 4.515 5.541-.298 9.685 1.111 4.64 2.984 1.305 4.26-.721 2.976-.999 1.871-1.625 2.188-3.526 3.622-.341 1.809.957 2.273 2.256 1.2 3.843 2.871 5.254 2.591L45 36.481Z"/>
    <path fill="#F0814F" fill-rule="nonzero" d="M1.272 13.723 0 45.888l20.802 2.421-5.157-6.6-2.572-6.326.183-2.816 1.877-3.41 4.605-2.745 4.472-4.026 1.324-2.023.275-3.026-1.073-2.271-2.865-1.713-10.191-.779Z"/>
  </g>

  <g font-family="Inter, Avenir Next, Segoe UI, Arial, sans-serif" text-anchor="middle">
    <text x="512" y="538" font-size="34" font-weight="750" letter-spacing="6" fill="#F0814F">RAMBLERS TOOLS</text>

    <g transform="translate(480 584) scale(2.667)" fill="none" stroke="#F0814F" stroke-width="2" stroke-linecap="round" stroke-linejoin="round">
      <path d="M18 8a6 6 0 0 0-12 0c0 7-3 7-3 9h18c0-2-3-2-3-9"/>
      <path d="M10 21h4"/>
    </g>

    <text x="512" y="765" font-size="92" font-weight="760" letter-spacing="-2" fill="#22352E">RA Walks</text>
    <text x="512" y="866" font-size="92" font-weight="760" letter-spacing="-2" fill="#22352E">Notifier</text>
  </g>
</svg>
