<svg xmlns="http://www.w3.org/2000/svg" viewBox="0 0 900 560" role="img" aria-labelledby="title desc">
  <title id="title">RA Walks Notifier menu bar menu</title>
  <desc id="desc">Illustration of the macOS menu bar dropdown with status, checking, settings, and update actions.</desc>
  <rect width="900" height="560" fill="#d8e8f4"/>
  <rect y="0" width="900" height="38" fill="#f8fafc" opacity=".94"/>
  <text x="634" y="25" fill="#344054" font-family="-apple-system, BlinkMacSystemFont, 'Segoe UI', Arial, sans-serif" font-size="14">Mon 29 Jun 14:55</text>
  <circle cx="786" cy="19" r="9" fill="#006747"/>
  <text x="786" y="24" text-anchor="middle" fill="#ffffff" font-family="-apple-system, BlinkMacSystemFont, 'Segoe UI', Arial, sans-serif" font-size="11" font-weight="800">0</text>
  <rect x="520" y="48" width="300" height="430" rx="16" fill="#ffffff" stroke="#c9d3df"/>
  <text x="544" y="86" fill="#9aa5b1" font-family="-apple-system, BlinkMacSystemFont, 'Segoe UI', Arial, sans-serif" font-size="15">Status: 0 pending walks</text>
  <text x="544" y="116" fill="#9aa5b1" font-family="-apple-system, BlinkMacSystemFont, 'Segoe UI', Arial, sans-serif" font-size="15">Last check: 29/06/2026 14:52 BST</text>
  <line x1="540" y1="139" x2="800" y2="139" stroke="#e0e6ed"/>
  <text x="544" y="176" fill="#1f2933" font-family="-apple-system, BlinkMacSystemFont, 'Segoe UI', Arial, sans-serif" font-size="16">Show Status</text>
  <text x="544" y="211" fill="#1f2933" font-family="-apple-system, BlinkMacSystemFont, 'Segoe UI', Arial, sans-serif" font-size="16">Check Now</text>
  <text x="544" y="246" fill="#1f2933" font-family="-apple-system, BlinkMacSystemFont, 'Segoe UI', Arial, sans-serif" font-size="16">Send Walks Report Email</text>
  <text x="544" y="281" fill="#1f2933" font-family="-apple-system, BlinkMacSystemFont, 'Segoe UI', Arial, sans-serif" font-size="16">Open Review List</text>
  <line x1="540" y1="305" x2="800" y2="305" stroke="#e0e6ed"/>
  <text x="544" y="340" fill="#1f2933" font-family="-apple-system, BlinkMacSystemFont, 'Segoe UI', Arial, sans-serif" font-size="16" font-weight="700">Settings &amp; Configuration</text>
  <text x="544" y="376" fill="#1f2933" font-family="-apple-system, BlinkMacSystemFont, 'Segoe UI', Arial, sans-serif" font-size="16">Manage Recipients</text>
  <text x="544" y="411" fill="#1f2933" font-family="-apple-system, BlinkMacSystemFont, 'Segoe UI', Arial, sans-serif" font-size="16">Refresh Walks Manager Login</text>
  <line x1="540" y1="434" x2="800" y2="434" stroke="#e0e6ed"/>
  <text x="544" y="463" fill="#1f2933" font-family="-apple-system, BlinkMacSystemFont, 'Segoe UI', Arial, sans-serif" font-size="16">Check for Updates</text>
  <path d="M92 410c84-102 149-140 235-118 61 16 98 64 156 44" fill="none" stroke="#78be20" stroke-width="26" stroke-linecap="round" opacity=".75"/>
  <path d="M92 452c90-76 162-98 235-62 50 25 89 56 152 30" fill="none" stroke="#006747" stroke-width="17" stroke-linecap="round" opacity=".85"/>
</svg>
